# xmcd
#
# Track frame offsets:
#	150
#	14141
#	25348
#	39241
#	53932
#	67041
#	83380
#	99846
#	117618
#	128359
#	144375
#	160197
#
# Disc length: 2427 seconds
#
# Revision: 0
# Processed by: cddbd v1.5.1PL2 Copyright (c) Steve Scherf et al.
# Submitted via: audiograbber 1.82.00
#
DISCID=9509790c
DTITLE=Kimball Brisco Johnson - Sheriff Johnson
DYEAR=2006
DGENRE=Country
TTITLE0=Dynamite With Whiskey
TTITLE1=Sheriff Johnson
TTITLE2=Dagger In My Heart
TTITLE3=House Of Sin
TTITLE4=Revenge Of The Gunfighter
TTITLE5=Riding On The Devils Train
TTITLE6=The Chair
TTITLE7=Smoking Gun
TTITLE8=Thy're Not My Girls
TTITLE9=Tough Men
TTITLE10=Wildflower Darling
TTITLE11=The Sheriff's Good To Me
EXTD=
EXTT0=
EXTT1=
EXTT2=
EXTT3=
EXTT4=
EXTT5=
EXTT6=
EXTT7=
EXTT8=
EXTT9=
EXTT10=
EXTT11=
PLAYORDER=
